<?xml version="1.0" encoding="UTF-8"?>
<svg version="1.1" xmlns="http://www.w3.org/2000/svg" width="512" height="512">
<path d="M0 0 C120.78 0 241.56 0 366 0 C366 13.4998164 366 13.4998164 365.46659851 19.15861511 C365.34789335 20.44721058 365.22918819 21.73580605 365.10688591 23.06344986 C364.97329199 24.45270971 364.83959673 25.84195982 364.70581055 27.23120117 C364.56531958 28.73362174 364.42532605 30.23608889 364.28578377 31.73859787 C363.90556928 35.81776479 363.51855661 39.89626138 363.13039613 43.97467875 C362.71619155 48.34027673 362.30859753 52.70649208 361.90031433 57.07264709 C361.20013955 64.5516385 360.49624348 72.03027145 359.78973389 79.50866699 C358.6816848 91.23863653 357.58133225 102.9693208 356.48291016 114.70019531 C356.34602319 116.16200434 356.34602319 116.16200434 356.20637083 117.65334487 C355.83743491 121.59332653 355.46852423 125.53331055 355.0997107 129.47330368 C354.54530263 135.39580496 353.99034897 141.31825481 353.43498731 147.24066675 C350.30114475 180.66363092 347.23425117 214.09227935 344.2118187 247.52548981 C343.33933101 257.17337854 342.46434597 266.82104141 341.5897007 276.46873474 C341.38598719 278.71579237 341.1823009 280.96285246 340.97864342 283.20991516 C339.25754303 302.19783153 337.52756362 321.18489582 335.76031494 340.1685791 C335.50810799 342.87784726 335.25724312 345.5872334 335.00775146 348.29675293 C334.68274471 351.81922658 334.35382221 355.34130856 334.0234375 358.86328125 C333.88681702 360.35469383 333.88681702 360.35469383 333.74743652 361.87623596 C333.66239868 362.77212936 333.57736084 363.66802277 333.48974609 364.59106445 C333.4185556 365.35417435 333.34736511 366.11728424 333.27401733 366.90351868 C333.00070717 368.9945895 332.55345225 370.96673498 332 373 C325.54178105 374.75042224 319.08342829 376.50035028 312.625 378.25 C311.60045715 378.52756134 310.57591431 378.80512268 309.52032471 379.09109497 C294.71801426 383.10084871 279.91424084 387.10516218 265.109375 391.10546875 C264.29704281 391.32497066 263.48471062 391.54447258 262.6477623 391.77062607 C254.49028812 393.97486591 246.33277478 396.17896051 238.17500877 398.38212013 C236.61232368 398.80422488 235.049672 399.22645335 233.48705482 399.64880943 C229.7311533 400.6639501 225.97486254 401.67758741 222.21755981 402.68753052 C215.88396111 404.39211079 209.55755497 406.11352601 203.25488281 407.93017578 C202.25244537 408.21570816 201.25000793 408.50124054 200.2171936 408.79542542 C198.44114568 409.30371431 196.66789945 409.82198679 194.89877319 410.35386658 C186.42820467 412.76476294 178.71203168 412.64341072 170.24609375 410.1484375 C169.5039563 409.94192062 168.76181885 409.73540375 167.99719238 409.52262878 C166.35233171 409.06336317 164.70910607 408.59821129 163.06735229 408.12796021 C159.35272384 407.06441477 155.62998708 406.03051992 151.90785217 404.99360657 C149.75146194 404.39246224 147.59550487 403.78976248 145.43992615 403.18571472 C129.45267816 398.71098265 113.42334138 394.38931939 97.40042114 390.04449463 C92.89461736 388.82250234 88.38939723 387.59837559 83.88443565 386.37328243 C80.42255922 385.43188124 76.96050787 384.49112435 73.49842834 383.55047035 C71.88878895 383.11302032 70.27920754 382.67535688 68.66969299 382.23744774 C57.12875357 379.09800061 45.57034676 376.0292537 34 373 C30.90446264 343.6382883 28.11993992 314.25158923 25.41543674 284.85155869 C24.83607403 278.5582143 24.25440688 272.26508283 23.67303467 265.97192383 C22.69350036 255.36551515 21.715346 244.75898014 20.73828125 234.15234375 C19.27024402 218.21595972 17.79934726 202.27984032 16.328125 186.34375 C14.89779068 170.85008791 13.46819549 155.35635889 12.04211426 139.86230469 C11.58082323 134.85091029 11.11951778 129.83951722 10.65820312 124.828125 C10.54581582 123.60710838 10.43342852 122.38609177 10.31763554 121.12807465 C8.82504872 104.91505762 7.32278228 88.70297254 5.81131792 72.49170494 C5.23841544 66.34236745 4.66762133 60.19283391 4.0969789 54.04328632 C3.57458978 48.41642 3.04872016 42.78989411 2.52005386 37.16361427 C2.20196443 33.76930564 1.88727054 30.37468869 1.57355976 26.97997284 C1.43027847 25.43714644 1.28558309 23.89445054 1.13930035 22.35190582 C0.94098551 20.25894659 0.74781343 18.1655712 0.55584717 16.07202148 C0.44766033 14.91443832 0.3394735 13.75685516 0.22800827 12.56419373 C-0.03940769 8.3839844 0 4.18875415 0 0 Z M68 77 C68.63987999 99.21072002 68.63987999 99.21072002 74 120 C112.28 120 150.56 120 190 120 C187.32133636 122.67866364 186.29214999 123.50429119 182.984375 124.8046875 C182.16324219 125.1332373 181.34210938 125.46178711 180.49609375 125.80029297 C179.58988281 126.15494629 178.68367188 126.50959961 177.75 126.875 C175.72335487 127.68599359 173.69734716 128.49858133 171.671875 129.3125 C170.58455078 129.74820313 169.49722656 130.18390625 168.37695312 130.6328125 C163.18586618 132.73446714 158.02687428 134.91100126 152.86691284 137.08773804 C138.50123985 143.14562551 124.09744333 149.11082631 109.6875 155.0625 C108.68291748 155.47763855 107.67833496 155.8927771 106.64331055 156.32049561 C103.74557328 157.5177611 100.8474716 158.71413947 97.94921875 159.91015625 C97.09301437 160.26385788 96.23681 160.61755951 95.35466003 160.98197937 C89.5852884 163.36066591 83.79834941 165.69287925 78 168 C78.11819834 171.04205201 78.2446483 174.08346038 78.375 177.125 C78.4059375 177.94226563 78.436875 178.75953125 78.46875 179.6015625 C78.93292094 190.12277051 80.04284304 200.47127347 81 211 C133.14 211 185.28 211 239 211 C238.34 219.25 237.68 227.5 237 236 C236.60002082 242.52064824 236.21494956 249.03893723 235.875 255.5625 C235.78805888 257.18295875 235.70081911 258.8034015 235.61328125 260.42382812 C235.40545677 264.28237893 235.20151345 268.14111467 235 272 C234.38557541 272.11419281 233.77115082 272.22838562 233.1381073 272.34603882 C227.23473939 273.47945674 221.50075535 274.89915631 215.73828125 276.6015625 C214.02547597 277.09664953 212.31258273 277.59143233 210.59960938 278.0859375 C207.945733 278.856918 205.29278539 279.63079492 202.64135742 280.41015625 C200.05097606 281.16968975 197.45745325 281.91759534 194.86328125 282.6640625 C194.0777034 282.89839996 193.29212555 283.13273743 192.48274231 283.37417603 C184.05826553 285.78181753 177.3836525 284.84175519 169.05078125 282.59375 C168.11574265 282.34959351 167.18070404 282.10543701 166.21733093 281.85388184 C163.24687516 281.07728236 160.2795479 280.28951076 157.3125 279.5 C154.33443421 278.71178041 151.35577318 277.92608175 148.37553406 277.14611816 C146.52556418 276.66156822 144.67687739 276.17208644 142.82966614 275.67712402 C141.99166977 275.45689575 141.1536734 275.23666748 140.2902832 275.00976562 C139.5563887 274.81435181 138.8224942 274.61893799 138.06636047 274.41760254 C135.69790023 273.86793941 135.69790023 273.86793941 132 274 C131.95101562 272.83726562 131.90203125 271.67453125 131.8515625 270.4765625 C131.77634382 268.85936092 131.70080504 267.2421742 131.625 265.625 C131.5940625 264.86960937 131.563125 264.11421875 131.53125 263.3359375 C131.1023487 254.47197725 129.98728594 245.88557343 129 237 C114.15 237 99.3 237 84 237 C85.98 259.77 87.96 282.54 90 306 C94.89328125 307.44632813 99.7865625 308.89265625 104.828125 310.3828125 C107.97266928 311.31245597 111.11720643 312.24212344 114.26171875 313.171875 C120.03691526 314.87944953 125.81218119 316.58678857 131.58760834 318.29358292 C133.98985348 319.00365866 136.39196251 319.71419354 138.79406738 320.42474365 C141.92711706 321.35134851 145.06088318 322.27547337 148.19519043 323.19781494 C154.65124673 325.10021723 161.099772 327.01246145 167.51367188 329.05371094 C168.43984314 329.34527069 169.3660144 329.63683044 170.32025146 329.93722534 C171.9325639 330.44836648 173.5413776 330.9707874 175.14508057 331.5083313 C182.49624651 333.82862698 188.73366976 331.94233435 195.91967773 329.82275391 C197.05773361 329.493265 197.05773361 329.493265 198.21878052 329.15711975 C200.70844422 328.43496195 203.19603738 327.70594314 205.68359375 326.9765625 C207.42552776 326.46918386 209.16755921 325.96213965 210.90968323 325.45541382 C214.55436165 324.39417894 218.19806416 323.32967624 221.84106445 322.26269531 C226.49403482 320.90007455 231.14899723 319.54441525 235.80467129 318.19106483 C239.40087406 317.14507064 242.99616353 316.09596617 246.59117317 315.04587936 C248.30642129 314.54513936 250.02190645 314.04521055 251.73763847 313.54613113 C254.14297347 312.84581895 256.54708989 312.14146674 258.95092773 311.43603516 C259.64987656 311.23332504 260.34882538 311.03061493 261.06895447 310.82176208 C265.80590367 309.42541135 270.43407862 307.88919154 275 306 C276.20676211 303.58647578 276.30200496 301.72943735 276.53785706 299.03660583 C276.67875259 297.46171638 276.67875259 297.46171638 276.82249451 295.85501099 C276.92175735 294.69814789 277.0210202 293.54128479 277.12329102 292.34936523 C277.23072632 291.13457993 277.33816162 289.91979462 277.44885254 288.66819763 C277.74319889 285.32923051 278.03383782 281.98998142 278.32261395 278.65053058 C278.62576435 275.1524698 278.93293975 271.65476212 279.23948669 268.15699768 C279.75430876 262.27508409 280.26569639 256.39287918 280.77514648 250.51049805 C281.36281185 243.72557163 281.95618292 236.9411625 282.55259758 230.15700001 C283.12694774 223.62195978 283.69687395 217.08654054 284.26493645 210.550951 C284.50626681 207.77554305 284.7491806 205.00028056 284.99341011 202.22512627 C285.33546949 198.33593468 285.67108405 194.44620111 286.00610352 190.55639648 C286.10739059 189.413703 286.20867767 188.27100952 286.31303406 187.09368896 C286.40414459 186.0240239 286.49525513 184.95435883 286.58912659 183.85227966 C286.66894555 182.93400611 286.74876451 182.01573256 286.83100224 181.06963253 C287.05218575 177.05211132 287 173.02360521 287 169 C252.35 169 217.7 169 182 169 C182 168.34 182 167.68 182 167 C183.21558594 166.62101562 184.43117188 166.24203125 185.68359375 165.8515625 C191.97820713 163.74887034 197.99400236 161.04930841 204.0625 158.375 C206.73973668 157.20309167 209.41855928 156.03483588 212.09765625 154.8671875 C212.80499908 154.55863831 213.51234192 154.25008911 214.24111938 153.93218994 C221.43539912 150.7995147 228.65659415 147.73125717 235.88208008 144.67138672 C239.2934635 143.22644767 242.70050392 141.77192288 246.10424805 140.30908203 C253.34295387 137.20411194 260.57478445 134.12202331 267.93939209 131.32568359 C270.77074927 130.24736935 273.5871358 129.13287084 276.40283203 128.0144043 C277.70020488 127.51154785 279.00499382 127.02735572 280.31689453 126.5637207 C284.47398789 125.09265758 287.18297595 123.50753405 291 121 C293.2445252 106.41058618 294.57815279 91.69242116 296 77 C220.76 77 145.52 77 68 77 Z " fill="#000000" transform="translate(73,100)"/>
<path d="M0 0 C19.14 0 38.28 0 58 0 C58 8.58 58 17.16 58 26 C51.73 26.33 45.46 26.66 39 27 C40.258125 28.27875 41.51625 29.5575 42.8125 30.875 C43.87404297 31.95394531 43.87404297 31.95394531 44.95703125 33.0546875 C47.04399194 35.15358937 47.04399194 35.15358937 50 37 C50 37.66 50 38.32 50 39 C51.32 39.66 52.64 40.32 54 41 C54 41.66 54 42.32 54 43 C55.32 43.66 56.64 44.32 58 45 C58 53.25 58 61.5 58 70 C38.86 70 19.72 70 0 70 C0 62.08 0 54.16 0 46 C9.9 45.505 9.9 45.505 20 45 C18.55625 43.84628906 17.1125 42.69257812 15.625 41.50390625 C13.74676998 39.86045498 11.87194818 38.21310295 10 36.5625 C9.04609375 35.81806641 8.0921875 35.07363281 7.109375 34.30664062 C4.375 31.81640625 4.375 31.81640625 0 25 C0 16.75 0 8.5 0 0 Z " fill="#000000" transform="translate(227,0)"/>
<path d="M0 0 C19.14 0 38.28 0 58 0 C58 8.58 58 17.16 58 26 C51.73 26.33 45.46 26.66 39 27 C40.3715625 28.093125 41.743125 29.18625 43.15625 30.3125 C44.94060024 31.87145863 46.72167919 33.43416702 48.5 35 C49.85931641 36.05767578 49.85931641 36.05767578 51.24609375 37.13671875 C53.84375 39.5 53.84375 39.5 58 46 C58 53.92 58 61.84 58 70 C38.86 70 19.72 70 0 70 C0 62.08 0 54.16 0 46 C9.9 45.505 9.9 45.505 20 45 C18.97519531 43.97519531 17.95039063 42.95039062 16.89453125 41.89453125 C11.26302083 36.26302083 5.63151042 30.63151042 0 25 C0 16.75 0 8.5 0 0 Z " fill="#000000" transform="translate(307,0)"/>
<path d="M0 0 C19.14 0 38.28 0 58 0 C58 8.58 58 17.16 58 26 C47.44 26 36.88 26 26 26 C26 32.6 26 39.2 26 46 C36.56 46 47.12 46 58 46 C58 53.92 58 61.84 58 70 C38.86 70 19.72 70 0 70 C0 46.9 0 23.8 0 0 Z " fill="#000000" transform="translate(147,0)"/>
</svg>
